<?xml version="1.0" encoding="UTF-8"?>
<svg id="Layer_2" data-name="Layer 2" xmlns="http://www.w3.org/2000/svg" xmlns:xlink="http://www.w3.org/1999/xlink" viewBox="0 0 163.41 163.41">
  <defs>
    <style>
      .cls-1 {
        clip-path: url(#clippath);
      }

      .cls-2 {
        fill: none;
      }

      .cls-2, .cls-3, .cls-4, .cls-5, .cls-6, .cls-7, .cls-8, .cls-9, .cls-10, .cls-11 {
        stroke-width: 0px;
      }

      .cls-3 {
        fill: #594740;
        fill-rule: evenodd;
      }

      .cls-4 {
        fill: #f7f3e7;
      }

      .cls-5 {
        fill: #50696e;
      }

      .cls-6 {
        fill: #9aafb3;
      }

      .cls-7 {
        fill: #967759;
      }

      .cls-8 {
        fill: #deb690;
      }

      .cls-9 {
        fill: #c79c73;
      }

      .cls-10 {
        fill: #d6e0d1;
      }

      .cls-11 {
        fill: #faf7f0;
      }
    </style>
    <clipPath id="clippath">
      <rect class="cls-2" width="163.41" height="163.41"/>
    </clipPath>
  </defs>
  <g id="OBJECTS">
    <g class="cls-1">
      <g>
        <path class="cls-3" d="m80.25,17.66c-5.02.4-6.07.54-9.13,1.27-5.85,1.4-9.59,2.78-12.93,4.78-2.13,1.28-3.09,1.99-5.6,4.17-2.53,2.19-4.47,4.55-6.26,7.62-.86,1.48-2.55,4.82-3.32,6.54-1.85,4.18-3.37,8.87-4.59,14.13-.28,1.24-.9,4.74-1.18,6.78-.54,3.83-.99,9.51-1.18,14.98-.15,4.51,0,12.86.29,16.64.56,6.95.73,8.49,1.53,13.08.58,3.37,1.78,7.91,3.12,11.81,1.07,3.1,3.17,7.75,4.96,10.96,1.24,2.22,2.94,4.6,4.38,6.13,1.31,1.39,3.92,3.65,5.67,4.89,1.53,1.1,4.34,2.69,5.74,3.27,1.78.73,4.13,1.53,6.02,2.05,4.86,1.32,6.86,1.69,11.14,2.03,1.15.09,2.41.16,2.8.16.96,0,4.58-.29,6.13-.49,4.56-.59,11.77-2.68,15.16-4.38,2.07-1.05,4.07-2.34,6-3.88,3.56-2.84,5.64-5.15,7.73-8.57,1.58-2.59,3.86-7.32,5.06-10.54,1.36-3.63,2.89-8.97,3.47-12.11,1.01-5.46,1.56-10.19,1.91-16.6.57-10.47.1-22.22-1.22-30.81-.7-4.55-1.38-7.52-2.75-11.95-1.14-3.69-2.22-6.44-3.85-9.77-2.73-5.6-4.78-8.58-7.83-11.35-1.11-1.03-2.81-2.42-3.97-3.26-1.9-1.4-4.99-3.08-7.03-3.84-.56-.21-1.23-.46-1.49-.57-1.06-.4-4.15-1.28-6.53-1.86-3.14-.76-4.46-.94-9.01-1.29-1.7-.13-1.95-.13-3.23-.03Zm2.64,2.09c.44.04,1.49.14,2.33.2,3.19.27,5.87.82,10.34,2.11,1.6.47,4.5,1.52,5.65,2.05,1.92.89,4.39,2.44,6.26,3.95,4.47,3.6,6.49,6.19,9.46,12.12,1.57,3.13,2.42,5.18,3.43,8.2,2.52,7.55,3.55,13.06,4.3,23.1.5,6.58.55,14.99.13,21.64-.67,10.57-1.66,16.37-4.05,23.94-1.07,3.39-2.26,6.26-4.06,9.81-2.75,5.43-4.51,7.7-8.64,11.15-1.56,1.3-2.51,1.99-4.14,2.96-1.55.94-2.71,1.51-4.26,2.12-3.43,1.34-8.8,2.8-11.87,3.22-1.48.2-5.22.53-6.06.53s-4.6-.33-6.02-.52c-1.49-.21-4.18-.8-6.06-1.33-.31-.09-.74-.21-.97-.27-2.06-.57-3-.89-5.09-1.7-2.87-1.11-5.52-2.75-8.29-5.06-3.98-3.34-5.73-5.58-8.38-10.75-2.62-5.1-4.3-9.67-5.81-15.68-.9-3.61-1.7-8.62-2.06-12.84-.59-6.86-.65-8.29-.65-15.42s.05-8.24.64-15.38c.4-4.72,1.51-11.2,2.5-14.54.06-.2.19-.64.28-.97.54-1.94,1.4-4.6,1.84-5.73,1.8-4.67,3.76-8.62,5.72-11.59,1.24-1.86,1.77-2.51,3.38-4.13,2.75-2.75,5.23-4.6,8.45-6.32,2.25-1.2,5.81-2.42,10.1-3.48,2.83-.69,4.4-.96,6.94-1.18.86-.07,1.85-.16,2.18-.19.89-.1,1.59-.1,2.48,0Z"/>
        <path class="cls-8" d="m74.01,94.13c.06-.19,0-.17-.64.15-1.28.65-2.63.96-4.22.95-.98,0-1.2-.02-1.59-.19l-.47-.18-.6.2c-1.51.52-2.96.44-4.6-.24-.36-.15-.77-.36-.93-.45-.27-.18-.36-.19-1.83-.18h-1.53l-.22,1.09c-.25,1.27-.73,4.53-.91,6.21-.12,1.16-.29,3.89-.25,3.94.02,0,.23-.23.48-.53.69-.84,2.44-2.5,3.15-2.99.6-.41,1.6-.92,2.25-1.15.83-.29,1.31.7.52,1.08-.15.07-.57.27-.94.44-1.15.54-2.3,1.5-3.76,3.13-2.81,3.16-4.36,7.36-4.07,11.04.14,1.81.61,3.85.83,3.61.06-.06.36-.43.68-.81,1.33-1.61,3.4-3.37,5.36-4.59,3.38-2.11,7.43-3.41,10.62-3.42.89,0,1.07-.02,1.04-.11-.02-.06-.08-.5-.14-.98-.19-1.74.02-5.15.54-8.87.29-2.08,1.07-6.69,1.21-7.17Z"/>
        <path class="cls-8" d="m101.12,100.72c.48.06,2.04.87,2.8,1.45.78.59,2.16,1.94,2.82,2.75.24.3.45.52.48.5.06-.06-.14-2.88-.31-4.44-.25-2.26-.93-6.49-1.08-6.74-.06-.09-3.1-.02-3.21.06-.18.15-1.45.72-1.91.86-1.22.36-2.53.33-3.73-.07l-.59-.2-.49.18c-.41.15-.65.18-1.62.18-1.23,0-1.87-.09-2.96-.44-.38-.12-.95-.36-1.27-.52-.57-.28-.57-.28-.57-.1,0,.1.04.35.09.54.33,1.45,1.18,7.03,1.49,9.82.18,1.62.23,5.14.1,6.03l-.11.69h1.03c5.46,0,12.19,3.38,16.13,8.12.33.4.63.73.65.73.18-.04.61-2.07.74-3.5.39-4.1-1.52-8.71-5.06-12.23-1.08-1.08-1.75-1.57-2.87-2.12s-1.21-.61-1.21-.96c0-.39.27-.62.67-.57Z"/>
        <path class="cls-8" d="m64.53,50.49c1.38-.98,2.89-1.89,4.4-2.67l.06-4.75.06-5.01-.35-.16c-.27-.12-.53-.15-1.2-.15-.77,0-.9.02-1.35.23-.92.42-1.57,1.34-1.86,2.64-.16.73-.18,2.91-.03,4.68.05.65.15,2.25.2,3.55.04.76.06,1.28.07,1.64Z"/>
        <path class="cls-5" d="m111.15,72.44c-1.45-.54-2.75-.61-9.36-.51-2.94.04-12.94.06-22.22.06-9.28,0-18.48-.03-20.43-.06-3.7-.05-4.02-.04-5.09.1-2.65.36-3.89,1.41-4.48,3.81-.44,1.82-.31,5.76.24,7.43.7,2.09,1.94,3.08,4.5,3.61,2.67.55,3.31.57,16.01.65,10.41.06,33.73-.02,34.77-.12.23-.02.82-.08,1.33-.13,2.15-.2,4.12-.67,5.06-1.21,1.3-.74,2.08-2.02,2.39-3.95.42-2.52.35-5.35-.18-6.87-.52-1.53-1.25-2.33-2.54-2.81Z"/>
        <path class="cls-8" d="m118.29,71.02c-1.15.46-2.34.83-3.56,1.12l-1.13.27.28.33c.61.73,1.07,1.78,1.36,3.04.3,1.39.33,4.09.06,6.14-.19,1.44-.62,2.66-1.26,3.62.02.02.04.03.07.05,1.01.77,1.85,1.84,2.54,3.25.5,1.03.64,1.72.58,2.89-.04.84-.21,1.83-.36,2.24,1.2,1.99,2.27,4.02,3.15,5.99,0-.03.02-.05.02-.08.4-1.35.95-3.56,1.28-5.14.79-3.78.61-5.84-.61-7.17-.19-.2-.85-.7-1.47-1.11-1.3-.86-1.89-1.44-2.23-2.17-.55-1.16-.53-2.58.04-5.35.73-3.53,1.23-6.71,1.25-7.91Z"/>
        <path class="cls-8" d="m94.41,37.19s.19-.04.38-.1c.44-.15,1.56-.17,2.13-.04.65.15,1.27.51,1.76,1,1.24,1.25,1.53,3.03,1.24,7.41-.07,1.09-.16,2.79-.2,3.8-.03.76-.07,1.44-.1,1.77.7.52,1.34,1.03,1.87,1.5.5.44.63.52.81.48,1.07-.24,3.08-1.02,4.21-1.62.36-.19.7-.4,1.03-.62-.57-.36-1.09-1-1.52-1.87-.17-.36-.39-.92-.48-1.26-.38-1.41-.42-1.83-.48-5.36-.06-3-.09-3.48-.23-4.18-.21-.98-.4-1.41-.78-1.84-.4-.44-.63-.55-1.53-.73-.42-.08-.9-.23-1.08-.31-1.46-.74-2.03-2.75-2.26-8.08-.09-1.91-.1-3.25-.05-3.85-1.55-.58-3.39-1.18-4.87-1.58.02,1.54.05,4.31.08,7.36.05,4.46.1,8.12.1,8.13Z"/>
        <path class="cls-6" d="m54.82,65.86c-.39,1.2-1.07,3.81-1.18,4.52l-.06.35.52-.06c.69-.08,4.87-.07,12.23.02l6.06.07.06-7.22c.08-10.66.23-14.31.66-16.04.03-.1.02-.19-.02-.19-.41.02-4.02,1.79-5.56,2.72-6.36,3.83-10.5,8.98-12.72,15.83Z"/>
        <path class="cls-9" d="m49.24,85.66c.06-.05.12-.09.17-.13-.62-.93-1.05-2.12-1.27-3.53-.21-1.41-.21-5.05,0-6,.3-1.35.82-2.57,1.41-3.25.15-.18.27-.34.26-.36-.02,0-.41-.1-.88-.21-1.3-.28-2.57-.67-3.79-1.16.02.19.04.42.07.71.11,1.43.48,3.68,1.11,6.74.38,1.89.45,2.39.48,3.35.08,2.34-.36,3.13-2.62,4.63-.64.42-1.3.93-1.47,1.13-.43.48-.77,1.19-.94,1.92-.19.89-.12,2.77.16,4.26.34,1.77.83,3.84,1.32,5.5.08.26.14.48.2.67.88-1.99,1.87-3.91,2.96-5.72.06-.09.12-.19.18-.29-.16-.42-.33-1.44-.38-2.25-.06-1.07.11-1.87.61-2.9.66-1.36,1.43-2.35,2.42-3.13Z"/>
        <path class="cls-8" d="m50.92,87.7l.35-.43-.56-.4c-.31-.22-.59-.48-.85-.77-1.11.94-1.86,1.9-2.44,3.17-.56,1.2-.62,2.11-.28,3.78,1.2-1.87,2.81-4.17,3.78-5.35Z"/>
        <path class="cls-9" d="m100.62,32.83c.38,1.18.79,1.63,1.7,1.85,1.32.32,1.51.39,1.9.67.76.57,1.15,1.36,1.41,2.92.14.78.18,1.48.23,4.25.06,2.84.09,3.42.23,4.04.45,2.06,1.23,3.32,2.22,3.67,1.47-1.11,2.65-2.47,3.37-3.92.64-1.27.96-2.81.93-4.29-.07,0-.14,0-.21,0-.74-.02-1.39-.31-1.95-.91-.74-.78-1.01-1.45-1.47-3.64-.61-2.92-.85-3.34-2.66-4.55-1.15-.78-1.7-1.28-2.18-1.99-.84-1.27-1.49-3.77-1.49-5.75,0-.12,0-.22,0-.31-.43-.23-.85-.45-1.26-.65-.44-.2-.99-.44-1.62-.68.04.55.08,1.42.12,2.39.13,3.99.3,5.52.74,6.91Z"/>
        <path class="cls-8" d="m77.12,114.58c1.26.34,1.98.42,4.14.44,2.25.02,3.18-.03,4.4-.3,2.33-.49,3.5-1.5,4-3.41.78-3.04-.02-10.2-2.43-21.77l-.13-.61h-5.37c-3.51,0-5.39.02-5.4.08-.18.5-1.2,5.77-1.69,8.67-1.37,8.25-1.52,12.53-.5,14.65.51,1.05,1.57,1.85,2.98,2.24Z"/>
        <path class="cls-7" d="m68.62,93.99h.79c1.78,0,3.8-.76,4.72-1.76.27-.31.31-.41.61-1.8.18-.82.32-1.49.31-1.49,0,0-3.42-.03-7.59-.05l-7.57-.02-.52.35c-.8.53-3.04,3.02-2.87,3.19.15.15,1.23.46,1.93.55,1.19.16,2.87-.1,3.83-.58.61-.31,1.07-.09,1.02.48-.02.26-.08.33-.4.54-.21.13-.38.27-.38.3,0,.03.23.14.54.23.74.24,1.91.3,2.59.12.68-.17,1.7-.66,2.34-1.13.59-.42.86-.46,1.12-.19.27.29.23.6-.15.96l-.33.31Z"/>
        <path class="cls-7" d="m103.97,89.15l-.5-.32-.89.02c-.48.02-3.88.03-7.53.04-6.26.02-6.65.03-6.65.17,0,.07.13.75.3,1.51l.3,1.37.43.42c.99.97,2.87,1.64,4.6,1.64h.78l-.33-.31c-.4-.37-.44-.65-.14-.94.27-.27.52-.25.98.08.65.46,1.38.86,1.99,1.07.82.3,2.16.31,3.07.02.34-.11.62-.23.62-.25,0-.03-.15-.12-.33-.2-.57-.26-.73-.73-.37-1.07.25-.24.51-.23,1.12.06,1.03.48,2.6.67,3.84.45.73-.13,1.6-.4,1.68-.53.12-.19-2.22-2.74-2.97-3.23Z"/>
        <path class="cls-9" d="m113.75,86.26c-.06-.05-.12-.1-.17-.14-.31.36-.66.66-1.05.91l-.36.23.84,1.09c1.16,1.5,2.27,3.1,3.29,4.73.02-.19.05-.39.09-.57.24-1.36.11-2.27-.52-3.51-.61-1.2-1.24-2.01-2.12-2.72Z"/>
        <path class="cls-8" d="m106.79,32.32c.57.39,1.18.83,1.34,1,.69.71,1.17,1.86,1.52,3.62.48,2.44.9,3.42,1.7,3.95.41.27.79.37,1.2.33-.14-1.39-.44-2.54-1.4-5.41-.51-1.51-1.01-3.17-1.12-3.67-.16-.73-.26-1.43-.31-2.12-1.95-1.8-4.2-3.48-6.36-4.74,0,.79.17,1.87.46,2.94.55,2.1,1.11,2.88,2.98,4.11Z"/>
        <path class="cls-8" d="m57.22,32.84c-1.89,1.28-2.15,1.72-2.76,4.66-.4,1.93-.69,2.72-1.28,3.45-.54.68-1.51,1.11-2.3,1.07,0,.18,0,.36,0,.55.04,1.45.27,2.44.79,3.53.77,1.6,1.95,2.97,3.48,4.12.3-.11.47-.23.74-.51.49-.5.93-1.3,1.21-2.24.4-1.32.47-2.01.5-5.05.03-2.96.11-3.94.36-4.96.42-1.66,1.13-2.36,2.7-2.68.88-.17,1.11-.27,1.46-.65.91-.97,1.34-3.51,1.45-8.75.02-.74.05-1.42.08-1.87-.31.12-.63.25-.93.37-.52.21-1.19.55-1.91.95,0,.11,0,.25,0,.43-.04,1.64-.52,3.76-1.12,4.98-.51,1.03-1.14,1.69-2.48,2.59Z"/>
        <path class="cls-7" d="m104.85,133.75c-.22.03-1.11.07-1.98.07-1.28,0-1.76-.03-2.54-.17-1.07-.19-2.59-.67-3.35-1.05l-.49-.25-.48.16c-1.57.53-4.39.69-6.06.33-2.96-.62-5.43-2-7.6-4.26l-.62-.64-.63.65c-1.83,1.87-3.67,3.04-5.97,3.8-1.55.51-2.31.63-3.96.62-1.45,0-2.78-.18-3.72-.5l-.46-.15-.69.3c-2.17.95-4.35,1.32-6.76,1.15-.65-.05-1.21-.11-1.25-.13-.03-.02-.36.16-.72.4-1.47.99-3.03,1.62-4.57,1.83.68.66,1.43,1.33,2.29,2.05,2.77,2.32,5.43,3.95,8.29,5.06,2.09.82,3.03,1.13,5.09,1.7.23.06.66.19.97.27,1.87.53,4.56,1.12,6.06,1.33,1.42.19,5.18.52,6.02.52s4.58-.33,6.06-.53c3.07-.42,8.44-1.88,11.87-3.22,1.55-.61,2.71-1.18,4.26-2.12,1.63-.98,2.58-1.66,4.14-2.96.89-.74,1.66-1.43,2.36-2.1-1.54-.25-3.15-.89-4.51-1.82-.62-.42-.64-.42-1.03-.36Z"/>
        <path class="cls-7" d="m98.19,113.82c-3.14-1.26-7.16-1.75-7.66-.94-.78,1.29-1.35,1.86-2.45,2.44-1.2.62-2.68.94-4.91,1.05-3.68.19-6.56-.25-8.24-1.28-.7-.42-1.49-1.23-1.81-1.85-.25-.48-.29-.52-.66-.63-.84-.25-2.96-.06-4.85.43-2.88.76-6.09,2.4-8.52,4.36-4.34,3.5-7.54,9.35-8.07,14.67-.05.45-.04,1.17,0,1.75.27.32.54.63.83.95.49-.02,1.13-.08,1.53-.18,2.57-.61,4.82-2.2,7.25-5.11.54-.64,1.07-1.2,1.17-1.24.37-.15.76.13.76.53,0,.23-.15.46-.82,1.29-.45.56-1.12,1.33-1.49,1.72-.37.4-.65.73-.62.77.02.02.44.05.9.05,3.72,0,6.94-1.44,10.24-4.55.73-.69.96-.86,1.15-.86.28,0,.57.32.57.63,0,.36-1.83,2.11-3.34,3.18-.42.31-.58.47-.5.5.06.02.52.1,1.03.18,1.07.15,2.67.12,3.61-.08,1.4-.31,2.98-.91,4.03-1.55,1.3-.78,2.8-2.1,3.58-3.12.46-.6.5-.63.8-.63s.34.03.91.75c1.01,1.26,2.71,2.63,4.22,3.39,2.27,1.13,4.66,1.56,6.95,1.23.53-.07.99-.15,1.03-.18.03-.02-.37-.36-.9-.75-1.04-.78-2.7-2.32-2.88-2.68-.15-.27-.08-.59.15-.75.34-.23.51-.15,1.47.73,1.14,1.06,1.79,1.58,2.79,2.25,1.53,1.02,3.25,1.74,4.9,2.07.92.18,2.79.3,3.26.21l.28-.05-.68-.71c-1.11-1.15-2.36-2.74-2.36-3,0-.47.48-.73.9-.49.1.06.4.38.67.71,2.15,2.71,4.29,4.43,6.48,5.23.76.27,1.92.5,2.62.53.31-.33.61-.67.89-1.02,0-.07,0-.12.01-.2.16-2.42-.73-5.81-2.39-9.02-2.57-4.99-6.53-8.58-11.86-10.72Z"/>
        <path class="cls-7" d="m53.66,121.42l-.22-.57c-.91-2.37-1.16-5.49-.65-8.06.31-1.55,1.2-3.87,1.92-5.06l.23-.37.02-1.66c.03-3.37.6-7.99,1.44-11.76.03-.14-.05-.21-.48-.42-.31-.15-.57-.34-.65-.48-.19-.32-.19-.84.02-1.23.2-.39,1.2-1.6,2-2.44l.6-.61-.48-.06c-2.25-.25-3.52-.47-4.48-.77l-.51-.16-.15.19c-2.97,3.69-5.71,8.15-7.6,12.34-1.63,3.63-3.08,8.32-3.58,11.31,1.5,5.98,3.18,10.53,5.79,15.61,1.01,1.96,1.88,3.5,2.8,4.84.1-1.36.39-2.77.88-4.29.56-1.72,1.54-3.84,2.57-5.5l.52-.85Z"/>
        <path class="cls-7" d="m111.65,88.61l-.64-.82-.5.15c-.64.19-2.36.52-3.41.64-.44.05-.96.1-1.15.13l-.35.04.51.57c1.68,1.87,2.19,2.61,2.19,3.18,0,.46-.19.71-.8,1.03-.44.22-.52.29-.48.43.29,1.07.99,5.4,1.21,7.63.15,1.45.3,4.37.27,5.13-.02.57-.02.57.63,1.9,1.03,2.06,1.52,3.74,1.73,5.81.19,1.89-.13,4.3-.82,6.24-.14.38-.24.73-.24.77s.23.45.52.91c.29.46.82,1.42,1.16,2.13,1.29,2.63,2.04,5.19,2.23,7.54.96-1.41,1.88-3.03,2.95-5.14,1.8-3.55,2.99-6.42,4.06-9.81.61-1.93,1.13-3.74,1.57-5.55-.45-2.5-1.53-6.24-2.8-9.39-1.87-4.66-4.59-9.34-7.86-13.52Z"/>
        <path class="cls-9" d="m41.19,105.68s-.1-.46-.14-.9c-.07-1.07-.22-1.72-.64-2.99-.41-1.23-.9-2.48-1.43-3.65.02.18.03.37.05.56.27,3.15.78,6.76,1.41,9.88.25-.96.52-1.91.82-2.85-.02-.02-.05-.02-.07-.05Z"/>
        <path class="cls-8" d="m41.54,102.9c.1.4.17.88.22,1.32.37-1.06.77-2.11,1.2-3.14-.53-1.28-1.8-6.66-2.03-8.7-.11-1.02-.05-2.59.13-3.26.41-1.49,1.09-2.29,2.89-3.43.95-.6,1.44-1.05,1.73-1.6.54-1.01.55-2.25.03-4.76-.73-3.5-1.15-6.19-1.27-7.89-.02-.36-.03-.57-.02-.71-.51-.22-1.01-.45-1.5-.71.02,1.37-.03,3.86-.13,5.04-.1,1.33-.36,2.89-.65,3.91-.68,2.45-2.16,4.2-3.75,4.47,0,5.98.05,7.92.42,12.62.1.19.22.43.36.72.95,1.93,1.99,4.62,2.37,6.12Z"/>
        <path class="cls-11" d="m132.59,48.99c0,4.8-1.62,9.21-5.01,13.57-1.98,2.53-4.86,4.85-7.95,6.37-2.03,1-3.8,1.61-5.85,2.01-.69.14-2.29.13-2.43,0-.04-.04-.17-.51-.28-1.04-.35-1.62-.82-3.34-1.32-4.84-.26-.79-.53-1.51-.79-2.12-1.27-2.97-3.03-5.78-5.05-8.02-.4-.45-.7-.82-.7-.84.01-.02.28-.12.59-.21,2.95-.96,5.14-2.26,6.95-4.13,2.18-2.25,3.13-4.57,3.13-7.58-.01-1.98-.19-2.86-1.48-6.74-1.14-3.47-1.31-4.2-1.36-5.94-.04-1.58.12-2.51.64-3.85,1.32-3.39,5.16-6.75,10.2-8.95,1.7-.74,2.85-1.01,3.11-.73t.01,0c.15.19.05.61-.52,2.38-1.23,3.77-1.39,6.28-.58,9.33.52,1.93,1.37,3.74,3.18,6.73,2.67,4.42,3.28,5.54,4.08,7.56,1.02,2.57,1.42,4.58,1.43,7.04Z"/>
        <path class="cls-8" d="m122.41,104.63c-.03.52-.1.96-.16,1.03-.02.03-.05.04-.07.06.3.95.58,1.88.81,2.77.62-3.08,1.06-6.31,1.41-10.2-.61,1.38-1.28,3.1-1.57,4.07-.27.92-.35,1.32-.42,2.28Z"/>
        <path class="cls-9" d="m38.39,82.64c.91-.2,2.01-1.33,2.6-2.72.77-1.83,1.05-3.74,1.15-7.8.03-1.18.06-1.98.09-2.47-1.11-.62-2.17-1.32-3.18-2.1,0,.11-.02.22-.03.33-.57,6.93-.63,8.17-.64,14.76Z"/>
        <path class="cls-9" d="m120.72,75.78c-.1-.8-.18-4.12-.18-5.78-.5.26-1.01.49-1.52.72,0,.16,0,.39-.03.78-.08,1.57-.4,3.57-1.22,7.67-.42,2.08-.5,2.92-.37,3.76.2,1.27.61,1.78,2.29,2.87.59.39,1.28.91,1.53,1.17.57.57,1.05,1.53,1.23,2.43.15.72.17,2.21.05,3.21-.25,2.05-1.48,7.09-2.02,8.43.42,1.02.83,2.09,1.2,3.16.12-1.18.42-2.19,1.28-4.45.42-1.11,1.14-2.68,1.62-3.61.07-.97.15-1.97.21-3.03.19-2.98.28-6.31.28-9.67-.35-.06-.73-.2-1.04-.39-1.83-1.15-2.85-3.38-3.31-7.28Z"/>
        <path class="cls-5" d="m81.72,70.72l7.89.02.06-.82c.07-1.03-.02-13.61-.13-16.71-.18-5.31-.57-6.95-1.92-8.18-.72-.65-1.64-1.01-3.36-1.35-1.15-.23-3.29-.29-4.4-.12-1.2.19-2.32.49-3.05.85-1.94.93-2.57,2.5-2.84,7.03-.11,1.79-.25,16.52-.18,18.09l.06,1.17,7.88.02Z"/>
        <path class="cls-8" d="m123.57,81.67c.54.55,1.06.89,1.5.99-.01-3.88-.15-7.77-.41-11.17-.1-1.37-.21-2.65-.33-3.87-.06.05-.12.09-.18.14-.93.7-1.92,1.33-2.94,1.9.03.45.06,1.2.08,2.36.06,2.88.12,3.6.4,5.14.36,2.08,1.02,3.63,1.88,4.51Z"/>
        <path class="cls-9" d="m87.65,34.04c-.52.25-1.29.25-2.22.02-1-.25-2.17-.25-2.68,0-1.37.68-2.12,2.58-2.57,6.56-.08.75-.15,1.31-.22,1.72,1.42-.11,3.39-.09,4.34.08,1.23.23,2.16.51,2.91.88,0-.25,0-.54.02-.89.04-2,.15-2.83.48-3.72.4-1.08.93-1.57,2.5-2.33,1.06-.51,1.53-.98,2.05-2.07.65-1.33.69-1.66.69-5.14,0-1.66-.02-4.38-.05-6.02-.01-.77-.02-1.35-.03-1.78-.9-.24-1.77-.44-2.63-.62.06,1.28.05,4.52-.04,5.95-.29,4.33-1.11,6.69-2.54,7.36Z"/>
        <path class="cls-11" d="m60.28,54.05l-.62.7c-2.69,3-4.61,6.27-5.97,10.27-.49,1.43-.9,2.95-1.26,4.58-.16.73-.31,1.34-.32,1.36-.02.02-.43.05-.9.07-.72.03-1.06,0-1.89-.17-4.57-.93-9.37-3.66-12.41-7.07-3.43-3.85-5.43-8.07-5.96-12.66-.53-4.47.62-8.77,3.7-13.91.33-.56,1.1-1.85,1.73-2.86,1.79-2.97,2.66-4.8,3.17-6.74.39-1.49.45-2.03.45-3.59,0-2.07-.23-3.24-1.07-5.82-.59-1.79-.72-2.27-.34-2.35.1-.03.25-.02.45,0,.27.03.82.16,1.21.3,2.34.82,5.25,2.46,7.18,4.02.96.78,2.25,2.09,2.89,2.94,1.59,2.12,2.3,4.49,2.08,6.93-.13,1.42-.41,2.56-1.31,5.22-1.35,4.05-1.58,5.17-1.5,7.42.05,1.47.25,2.44.73,3.57,1.07,2.53,3.31,4.84,6.11,6.28,1.06.54,2.53,1.14,3.36,1.4l.49.14Z"/>
        <path class="cls-8" d="m77.95,22.66c.98,3.03,2.1,4.08,3.14,2.93.79-.88,1.23-2.38,1.42-4.89.03-.37.07-.7.1-.95-1.04-.08-1.29-.05-2.02.01-1.38.12-2.43.21-3.29.3.03.13.06.28.08.43.1.57.36,1.54.56,2.16Z"/>
        <path class="cls-9" d="m96,48.63c.92.53,1.93,1.18,2.89,1.86.03-.85.12-2.41.26-4.75.09-1.42.16-2.88.16-3.25,0-1.29-.27-2.58-.69-3.3-.34-.57-1.03-1.14-1.63-1.32-.71-.22-1.57-.22-2.16,0l-.45.17.06,5.03.05,4.74c.54.27,1.05.55,1.51.81Z"/>
        <path class="cls-9" d="m76.95,27.85c1.1,2.74,3.43,4.04,5.5,3.05,1.57-.76,2.58-2.4,3.21-5.23.15-.66.49-3.51.61-5.01.02-.22.04-.4.08-.55-.24-.03-.48-.06-.73-.08-1-.09-1.74-.16-2.31-.21.05.97-.24,3.25-.59,4.31-.73,2.13-1.94,3.08-3.2,2.51-.76-.34-1.4-1.27-2.03-2.96-.44-1.17-.8-2.65-.91-3.53-.27.03-.52.06-.76.09.09.47.15,1.21.22,2.36.16,2.62.39,3.98.9,5.25Z"/>
        <path class="cls-6" d="m101.97,54.75c-2.88-2.89-6.56-5.32-10.61-7.03-1.07-.45-1.12-.46-1.06-.23.1.41.29,1.7.37,2.66.16,2.02.24,5.44.3,12.95l.05,7.66,6.06-.07c7.35-.09,11.26-.09,12.13-.02l.66.06-.19-.89c-1.38-6.38-3.86-11.24-7.71-15.09Z"/>
        <path class="cls-9" d="m50.9,41.23c.17.02.31,0,.51-.05,1.11-.29,1.72-1.2,2.16-3.24.6-2.79.9-3.67,1.57-4.45.18-.22.86-.74,1.53-1.2,1.29-.88,1.77-1.34,2.22-2.14.58-1.03,1.03-2.8,1.18-4.66,0-.09.01-.17.02-.24-1.15.66-2.33,1.42-3.14,2.03-.85.65-2.31,1.87-3.24,2.72-.1,1.64-.43,2.93-1.49,6.02-.88,2.55-1.23,3.87-1.32,5.22Z"/>
        <path class="cls-9" d="m72.33,43.29c1.3-2.99,1.95-5.77,1.84-7.93-.07-1.35-.28-2.33-1.15-5.13-1.36-4.41-1.66-5.92-1.66-8.41,0-.27,0-.49,0-.69-.27.07-.54.14-.81.2l-.03,2.74c-.03,2.27-.09,8.45-.14,13.74-.04,4.19-.08,7.87-.11,9.32.27-.12.53-.24.79-.35.14-.85.37-1.47,1.25-3.5Z"/>
        <path class="cls-9" d="m64.32,25.53c-.1,4.6-.41,7-1.11,8.39-.48.96-1.03,1.34-2.3,1.6-.93.19-1.32.41-1.71,1-.15.22-.31.59-.39.83-.31,1.09-.36,1.66-.44,5.07-.05,2.5-.1,3.56-.19,4.05-.39,2.07-1.23,3.6-2.29,4.25.96.63,2.04,1.18,3.25,1.63.61.23,2.07.69,2.2.69,0,0,.35-.3.77-.65.53-.47,1.12-.92,1.72-1.37-.04-.35-.1-1.13-.13-1.97-.03-1.07-.13-2.79-.2-3.84-.28-4.09.02-5.84,1.23-7.11.49-.51,1.15-.89,1.8-1.04.57-.14,1.65-.12,2.12.02l.38.11.05-2.35c.02-1.29.08-5.18.11-8.62l.04-4.52c-1.78.49-3.4,1.01-4.9,1.57.04.36.03,1.03,0,2.26Z"/>
        <path class="cls-8" d="m73.59,29.47c1.27,4.05,1.37,4.6,1.31,6.74-.08,2.57-.66,4.78-2.1,7.99-.39.87-.66,1.6-.82,2.22.28-.11.56-.22.83-.32l.84-.29.31-.52c.89-1.49,2.41-2.36,4.97-2.84.06-.01.12-.02.18-.03.07-.4.19-1.2.27-2,.23-1.91.49-3.25.87-4.32.62-1.78,1.59-2.75,2.97-3,.61-.11,1.17-.06,2.38.22,1.39.31,1.9.16,2.47-.73,1-1.54,1.45-4.59,1.45-9.89,0-.97.02-1.7.04-2.11-.86-.16-1.71-.3-2.56-.41.01.5-.08,1.43-.27,3.13-.4,3.61-1.11,5.7-2.41,7.09-1.03,1.11-2.01,1.58-3.25,1.59-.83,0-1.31-.12-2.13-.55-1.08-.57-1.88-1.48-2.55-2.87-.65-1.39-.93-2.72-1.09-5.28-.05-.76-.15-1.83-.2-2.38-.03-.23-.05-.41-.06-.56-.79.13-1.49.27-2.4.48-.2.05-.39.09-.59.14.02.32.04.72.05,1.14.05,2.3.33,3.68,1.47,7.35Z"/>
        <path class="cls-8" d="m91.93,36.06c-.48.48-.73.65-1.55,1.07-1.14.57-1.49.86-1.77,1.41-.43.84-.52,1.47-.59,3.71-.02.67-.04,1.15-.06,1.49.22.15.43.32.62.5.34.32.73.8.91,1.1.3.52.31.52.86.69.66.2,1.71.64,2.81,1.15,0-.13-.01-.27-.02-.42-.03-.78-.06-2.41-.06-3.64s-.02-3.65-.06-5.39l-.05-3.17-.25.47c-.14.26-.5.73-.82,1.04Z"/>
        <path class="cls-10" d="m132.59,48.99c0,4.8-1.62,9.21-5.01,13.57-1.98,2.53-4.86,4.85-7.95,6.37-2.03,1-3.8,1.61-5.85,2.01-.69.14-2.29.13-2.43,0-.04-.04-.17-.51-.28-1.04-.35-1.62-.82-3.34-1.32-4.84,4.58-.49,9.07-2.13,12.59-5.07,3.96-3.32,6.57-8.39,6.36-13.55-.15-3.7-1.67-7.18-3.23-10.54-1.55-3.36-3.18-6.77-3.58-10.45-.37-3.44.54-7.22,3.09-9.49t.01,0c.15.19.05.61-.52,2.38-1.23,3.77-1.39,6.28-.58,9.33.52,1.93,1.37,3.74,3.18,6.73,2.67,4.42,3.28,5.54,4.08,7.56,1.02,2.57,1.42,4.58,1.43,7.04Z"/>
        <path class="cls-10" d="m53.69,65.03c-.49,1.43-.9,2.95-1.26,4.58-.16.73-.31,1.34-.32,1.36-.02.02-.43.05-.9.07-.72.03-1.06,0-1.89-.17-4.57-.93-9.37-3.66-12.41-7.07-3.43-3.85-5.43-8.07-5.96-12.66-.53-4.47.62-8.77,3.7-13.91.33-.56,1.1-1.85,1.73-2.86,1.79-2.97,2.66-4.8,3.17-6.74.39-1.49.45-2.03.45-3.59,0-2.07-.23-3.24-1.07-5.82-.59-1.79-.72-2.27-.34-2.35,2.62,2.27,3.57,6.11,3.19,9.59-.4,3.68-2.03,7.09-3.58,10.45-1.55,3.36-3.07,6.84-3.22,10.54-.21,5.17,2.4,10.23,6.36,13.55,3.47,2.9,7.87,4.52,12.37,5.05Z"/>
        <path class="cls-4" d="m73.12,47.5c-9.48,4.93-16.58,12.9-19.53,23.23,0-11.02,8.86-21.06,19.53-23.23h0Z"/>
        <path class="cls-4" d="m109.16,71.83c-18.58,1.45-37.26,1.55-55.85.25,18.58-1.47,37.26-1.54,55.85-.25h0Z"/>
        <path class="cls-4" d="m74.38,48.53c.45,5.6.59,11.04.2,16.62-.61,6.8-.87,6.84-1.56,0-.4-5.54-.43-11.29,1.36-16.62h0Z"/>
        <path class="cls-4" d="m76.33,89.03c.04,7.57-1.82,14.83-2.67,22.3-1.24-3.66-.76-7.62-.3-11.36.59-3.75,1.44-7.44,2.97-10.95h0Z"/>
        <path class="cls-4" d="m90.54,112.87c2.41-1.13,5.33-.64,7.78.18,7.47,2.56,13.74,9.49,13.91,17.59-.84-2.44-1.97-4.7-3.34-6.76-3.53-5.35-11.71-11.43-18.35-11.01h0Z"/>
        <path class="cls-4" d="m73.26,112.87c-3.78-.32-7.3,1.5-10.4,3.46-5.38,3.22-9.25,8.34-11.28,14.31.16-8.1,6.44-15.03,13.91-17.59,2.45-.82,5.36-1.31,7.78-.18h0Z"/>
        <path class="cls-4" d="m52.29,87.96c-4.1,7.77-8.41,15.27-11.18,23.65.02-8.99,4.83-17.53,11.18-23.65h0Z"/>
        <path class="cls-4" d="m111.18,87.96c6.35,6.12,11.16,14.67,11.18,23.65-2.77-8.38-7.08-15.88-11.18-23.65h0Z"/>
        <path class="cls-3" d="m80.26,17.68c-5.02.4-6.07.54-9.13,1.27-4.43,1.06-7.9,2.2-10.47,3.44-1.83.9-4.01,2.23-5.52,3.39-.71.55-2.29,1.87-2.4,2-.05.06-.06.28-.03.57.07.57-.02,1.49-.23,2.29-.08.33-.14.6-.11.6s.44-.38.91-.84c.84-.81,2.67-2.37,3.67-3.13,1.49-1.13,4.27-2.76,5.77-3.38,2.8-1.17,6.01-2.16,9.93-3.06,2.33-.54,3.24-.66,7.94-1.07,1.17-.1,1.1-.1,5.02.26,2.46.23,4.81.66,7.45,1.37.34.09.82.22,1.07.28,2.35.62,5.61,1.77,7.23,2.53,2.82,1.34,6.09,3.64,8.71,6.14.34.33.65.58.66.56.02-.02,0-.67-.04-1.45-.04-.78-.08-1.49-.08-1.58,0-.31-2.81-2.53-4.64-3.67-2.08-1.29-3.72-2.12-5.45-2.77-.56-.21-1.23-.46-1.49-.57-1.52-.58-6.06-1.81-8.71-2.35-1.74-.36-3.34-.54-6.83-.8-1.79-.13-1.95-.13-3.23-.03Z"/>
        <g>
          <path class="cls-3" d="m76.62,19.42c-.23.27.25,2.58.88,4.26.63,1.69,1.27,2.62,2.03,2.96,1.26.57,2.47-.38,3.2-2.51.44-1.3.78-4.46.5-4.73-.13-.13-.43-.12-.53,0-.04.06-.12.65-.18,1.32-.19,2.5-.63,4.01-1.42,4.89-1.04,1.15-2.16.1-3.14-2.93-.2-.62-.45-1.6-.56-2.16-.1-.57-.22-1.07-.24-1.11-.08-.13-.42-.1-.53.04Z"/>
          <path class="cls-3" d="m69.43,19.74l-.19.21-.06,6.27c-.03,3.45-.09,7.33-.11,8.62l-.05,2.35-.38-.11c-.47-.15-1.54-.16-2.12-.02-.65.15-1.31.53-1.8,1.04-1.21,1.28-1.51,3.02-1.23,7.11.07,1.04.17,2.77.2,3.84.04,1.07.11,2.04.16,2.16.1.28.39.37.57.18.15-.15.15-.27.03-2.54-.06-1.31-.15-2.91-.2-3.55-.15-1.77-.13-3.95.03-4.68.29-1.3.94-2.22,1.86-2.64.45-.21.58-.23,1.35-.23.67,0,.93.03,1.2.15l.35.16-.06,5.01-.06,5.02.23.22c.45.45,1.03.18,1.12-.51.02-.19.08-4.68.13-9.97.05-5.29.1-11.47.14-13.74l.05-4.13-.21-.21c-.28-.28-.69-.28-.95,0Z"/>
          <path class="cls-3" d="m75.14,19.72c-.11.16-.11.31,0,1.19.06.56.15,1.62.2,2.38.16,2.56.44,3.89,1.09,5.28.67,1.4,1.47,2.31,2.55,2.87.82.43,1.3.56,2.13.55,1.24,0,2.22-.48,3.25-1.59,1.3-1.39,2.01-3.48,2.41-7.09.36-3.31.36-3.7-.05-3.7-.24,0-.37.32-.43,1.05-.12,1.49-.47,4.34-.61,5.01-.63,2.83-1.64,4.47-3.21,5.23-2.07.99-4.4-.31-5.5-3.05-.51-1.27-.73-2.62-.9-5.25-.15-2.46-.27-3.07-.65-3.07-.09,0-.21.08-.27.19Z"/>
          <path class="cls-3" d="m93.19,19.59c-.06.02-.16.15-.23.29-.11.23-.12.57-.07,3.25.02,1.64.05,4.35.05,6.02,0,3.48-.04,3.8-.69,5.14-.52,1.09-.99,1.56-2.05,2.07-1.57.76-2.09,1.25-2.5,2.33-.33.9-.44,1.72-.48,3.72-.05,2.05-.03,2.16.34,2.16s.39-.13.45-2.33c.06-2.24.16-2.87.59-3.71.28-.56.63-.84,1.77-1.41.82-.41,1.07-.58,1.55-1.07.31-.31.68-.78.82-1.04l.25-.47.05,3.17c.03,1.74.06,4.17.06,5.39s.02,2.87.06,3.64c.05,1.32.06,1.42.23,1.59.26.26.63.24.9-.02l.21-.21-.06-5.03-.06-5.03.45-.17c.6-.23,1.45-.23,2.16,0,.61.19,1.29.75,1.63,1.32.42.72.69,2.01.69,3.3,0,.36-.07,1.83-.16,3.25-.22,3.63-.31,5.39-.26,5.52.1.3.57.27.7-.04.02-.08.09-.96.13-1.96.04-1,.13-2.71.2-3.8.29-4.38,0-6.15-1.24-7.41-.49-.49-1.11-.85-1.76-1-.57-.13-1.7-.11-2.13.04-.19.06-.36.11-.38.1,0-.02-.06-3.67-.1-8.13-.04-4.47-.09-8.34-.1-8.62-.02-.4-.06-.55-.22-.71-.19-.19-.52-.26-.79-.15h0Z"/>
          <path class="cls-3" d="m89.62,20.25c-.05.1-.08,1.03-.08,2.45,0,5.31-.44,8.35-1.45,9.89-.57.89-1.08,1.04-2.47.73-1.21-.27-1.78-.33-2.38-.22-1.38.25-2.35,1.23-2.97,3-.38,1.07-.65,2.41-.87,4.32-.1.97-.25,1.95-.31,2.2-.15.57-.06.82.27.82.43,0,.54-.38.82-2.83.45-3.97,1.2-5.88,2.57-6.56.51-.25,1.68-.25,2.68,0,.93.23,1.7.23,2.22-.02,1.44-.67,2.25-3.03,2.54-7.36.11-1.78.1-6.36-.02-6.48-.15-.15-.45-.11-.55.06Z"/>
          <path class="cls-3" d="m71.47,20.28c-.06.06-.1.52-.1,1.55,0,2.49.3,4,1.66,8.41.86,2.8,1.07,3.78,1.15,5.13.1,2.16-.54,4.94-1.84,7.93-.95,2.2-1.14,2.74-1.28,3.71-.1.7-.02.95.31.95.31,0,.36-.1.49-.93.11-.73.42-1.66.94-2.83,1.44-3.21,2.02-5.43,2.1-7.99.06-2.14-.04-2.69-1.31-6.74-1.14-3.67-1.42-5.05-1.47-7.35-.02-.91-.07-1.72-.11-1.8-.09-.16-.4-.19-.54-.04Z"/>
          <path class="cls-3" d="m63.72,22.98c-.04.08-.1,1.16-.13,2.41-.11,5.23-.54,7.78-1.45,8.75-.35.38-.58.48-1.46.65-1.57.32-2.28,1.02-2.7,2.68-.26,1.02-.33,2-.36,4.96-.03,3.04-.1,3.72-.5,5.05-.28.94-.72,1.74-1.21,2.24-.34.35-.51.44-.99.59-.48.14-.59.2-.63.37-.13.5.58.6,1.41.19,1.15-.57,2.07-2.18,2.49-4.38.09-.49.15-1.56.19-4.05.07-3.42.12-3.98.44-5.07.07-.24.24-.61.39-.83.4-.59.78-.81,1.71-1,1.27-.26,1.82-.64,2.3-1.6.7-1.39,1.02-3.8,1.11-8.39.06-2.62.04-2.69-.35-2.69-.1,0-.22.06-.26.14Z"/>
          <path class="cls-3" d="m99.17,22.94c-.12.12-.13,1.66-.02,4.18.23,5.32.8,7.33,2.26,8.08.18.09.66.23,1.08.31.9.19,1.14.3,1.53.73.39.43.57.86.78,1.84.15.69.18,1.18.23,4.18.06,3.53.1,3.96.48,5.36.1.34.31.9.48,1.26.69,1.41,1.63,2.2,2.63,2.22.37,0,.54-.14.5-.41-.03-.21-.12-.27-.74-.44-1.04-.29-1.86-1.58-2.33-3.71-.14-.62-.17-1.2-.23-4.04-.06-2.77-.1-3.46-.23-4.25-.27-1.55-.65-2.34-1.41-2.92-.39-.28-.57-.35-1.9-.67-.9-.22-1.32-.67-1.7-1.85-.44-1.39-.61-2.92-.74-6.91-.06-1.57-.14-2.92-.18-2.97-.1-.12-.4-.13-.52,0Z"/>
          <path class="cls-3" d="m60.29,24.31c-.1.08-.15.36-.22,1.18-.15,1.86-.6,3.63-1.18,4.66-.45.8-.93,1.26-2.22,2.14-.68.46-1.36.99-1.53,1.2-.67.78-.98,1.66-1.57,4.45-.44,2.04-1.04,2.95-2.16,3.24-.3.08-.46.08-.83,0-.52-.13-.71-.06-.75.27-.03.27.2.43.8.55.83.17,1.95-.29,2.55-1.04.58-.73.88-1.52,1.28-3.45.61-2.94.87-3.38,2.76-4.66,1.34-.9,1.97-1.56,2.48-2.59.61-1.22,1.08-3.34,1.12-4.98.02-.73,0-.83-.14-.94-.19-.14-.23-.14-.39-.02Z"/>
          <path class="cls-3" d="m102.77,24.31c-.12.06-.15.2-.15.86,0,1.98.65,4.48,1.49,5.75.48.72,1.03,1.22,2.18,1.99,1.82,1.21,2.05,1.62,2.67,4.55.46,2.2.73,2.87,1.47,3.64.57.6,1.21.9,1.95.91.71,0,1.18-.21,1.18-.55s-.19-.42-.73-.29-.99.04-1.49-.29c-.8-.52-1.22-1.51-1.7-3.95-.35-1.76-.83-2.91-1.52-3.62-.16-.17-.77-.61-1.34-1-1.87-1.24-2.43-2.01-2.98-4.11-.29-1.1-.46-2.2-.46-3,0-.56-.02-.69-.16-.82-.19-.19-.23-.19-.42-.07Z"/>
          <path class="cls-3" d="m42.31,69.07c-.06.08-.12,1.03-.17,3.05-.1,4.06-.39,5.97-1.15,7.8-.65,1.53-1.92,2.76-2.88,2.76-.69,0-1.03.36-.65.67.16.13.28.15.69.11,1.67-.13,3.26-1.93,3.98-4.51.28-1.02.54-2.58.65-3.91.14-1.66.19-5.89.07-6-.13-.13-.43-.12-.54.02Z"/>
          <path class="cls-3" d="m120.57,69.05c-.1.13.02,5.66.15,6.73.46,3.9,1.48,6.12,3.31,7.28.69.43,1.7.57,1.97.28.31-.34-.02-.65-.68-.65-.48,0-1.11-.36-1.75-1.02-.86-.88-1.52-2.44-1.88-4.51-.27-1.54-.33-2.27-.4-5.14-.05-2.07-.09-2.84-.17-2.93-.12-.15-.44-.16-.55-.02Z"/>
          <path class="cls-3" d="m44.52,70.41c-.13.14-.14.26-.09,1.03.11,1.7.54,4.39,1.27,7.89.52,2.5.51,3.75-.03,4.76-.29.55-.78,1-1.73,1.6-1.8,1.14-2.48,1.95-2.89,3.43-.18.67-.24,2.25-.13,3.26.25,2.2,1.7,8.25,2.14,8.92.15.23.46.27.61.08.13-.15.1-.27-.43-2.1-.48-1.66-.98-3.73-1.32-5.5-.28-1.49-.36-3.38-.16-4.26.17-.73.51-1.44.94-1.92.17-.2.83-.71,1.47-1.13,2.26-1.5,2.71-2.29,2.62-4.63-.03-.96-.1-1.46-.48-3.35-.63-3.06-1-5.31-1.11-6.74-.06-.86-.13-1.25-.22-1.36-.16-.18-.28-.18-.46.02Z"/>
          <path class="cls-3" d="m118.47,70.38c-.15.1-.18.2-.18.58,0,1.15-.51,4.39-1.25,7.97-.57,2.77-.59,4.18-.04,5.35.34.73.93,1.31,2.23,2.17.62.41,1.28.91,1.47,1.11,1.23,1.33,1.41,3.39.61,7.17-.33,1.58-.88,3.8-1.28,5.14-.2.68-.35,1.31-.32,1.39.07.23.43.29.61.1.39-.4,1.9-6.45,2.18-8.75.12-1,.1-2.5-.05-3.21-.18-.9-.66-1.86-1.23-2.43-.26-.26-.94-.78-1.53-1.17-1.68-1.09-2.08-1.61-2.29-2.87-.13-.84-.05-1.67.37-3.76.82-4.1,1.14-6.11,1.22-7.67.05-.86.04-.99-.08-1.11-.17-.17-.21-.17-.44,0h0Z"/>
          <path class="cls-3" d="m49.24,85.66c-.99.78-1.76,1.78-2.42,3.13-.5,1.03-.67,1.83-.61,2.9.06.96.29,2.22.46,2.42.15.18.46.15.57-.04.06-.13.05-.36-.08-.99-.35-1.7-.29-2.6.27-3.81.59-1.29,1.35-2.27,2.5-3.22.46-.39.55-.58.36-.77-.19-.19-.45-.09-1.04.37Z"/>
          <path class="cls-3" d="m113.12,85.35c-.12.23-.02.39.63.91.88.71,1.51,1.52,2.12,2.72.63,1.24.76,2.16.52,3.51-.08.44-.15,1.01-.15,1.25,0,.42,0,.44.19.47.11,0,.25-.02.31-.06.17-.1.42-1.4.47-2.44.06-1.17-.08-1.87-.58-2.89-.69-1.41-1.53-2.48-2.54-3.25-.56-.43-.84-.49-.98-.23Z"/>
          <path class="cls-3" d="m38,95.37c-.08.04-.15.15-.15.24s.29.75.64,1.47c.7,1.45,1.37,3.09,1.91,4.7.42,1.27.57,1.92.64,2.99.03.44.1.86.14.9.14.17.45.12.56-.07.15-.27.03-1.73-.2-2.71-.37-1.5-1.41-4.19-2.37-6.12-.76-1.53-.83-1.61-1.17-1.41Z"/>
          <path class="cls-3" d="m125.04,95.38c-.21.12-1.47,2.75-2.09,4.39-.97,2.54-1.23,3.5-1.32,4.9-.05.73-.03.86.08.98.17.17.4.18.53.02.06-.07.13-.52.16-1.03.07-.95.15-1.36.42-2.28.36-1.21,1.32-3.62,2.01-5.04.4-.82.72-1.57.72-1.67s-.07-.23-.15-.27c-.19-.1-.17-.1-.36.02Z"/>
        </g>
        <path class="cls-3" d="m37.88,14.64c-.59.27-.85.73-.85,1.49,0,.65.04.81.67,2.75.26.81.57,1.94.69,2.5.19.91.22,1.2.22,2.64s-.02,1.69-.23,2.58c-.31,1.36-.69,2.41-1.37,3.8-.61,1.25-1.01,1.95-3.14,5.48-2.46,4.07-3.59,6.83-4.18,10.19-.72,4.18.28,9.5,2.56,13.56,3.65,6.51,9.65,11.03,16.67,12.57.47.1.86.2.88.21.02.02-.1.18-.26.36-.58.68-1.11,1.9-1.41,3.25-.21.95-.21,4.59,0,6,.34,2.25,1.23,3.94,2.57,4.88l.56.4-.35.43c-1.18,1.45-3.34,4.58-4.51,6.53-2.68,4.46-4.78,9.55-6.07,14.74-.8,3.23-.96,5.03-.49,5.5.27.27.7.27.92-.02.15-.19.17-.33.17-1.04,0-2.52,1.75-8.63,3.76-13.12,1.89-4.19,4.63-8.65,7.6-12.34l.15-.19.51.16c.96.3,2.24.52,4.48.77l.48.06-.6.61c-.81.84-1.8,2.05-2,2.44-.2.39-.21.9-.02,1.23.08.15.33.33.65.48.43.21.51.28.48.42-.84,3.77-1.41,8.39-1.44,11.76l-.02,1.66-.23.37c-.73,1.2-1.61,3.51-1.92,5.06-.52,2.57-.27,5.69.65,8.06l.22.57-.52.85c-1.03,1.66-2.01,3.78-2.57,5.5-.78,2.42-1.06,4.55-.85,6.68.06.7.09.78.34,1.03.47.49.64.54,1.76.53,1.92,0,3.9-.68,5.73-1.92.36-.24.69-.43.72-.4.04.02.6.08,1.25.13,2.41.18,4.59-.19,6.76-1.15l.69-.3.46.15c.94.32,2.27.5,3.72.5,1.65,0,2.41-.11,3.96-.62,2.29-.76,4.14-1.94,5.97-3.8l.63-.65.62.64c2.17,2.25,4.64,3.63,7.6,4.26,1.67.36,4.48.2,6.06-.33l.48-.16.49.25c.76.38,2.29.86,3.35,1.05.78.14,1.26.17,2.54.17.86,0,1.76-.04,1.98-.07.4-.06.41-.06,1.03.36,1.6,1.09,3.55,1.79,5.31,1.92,1.13.08,1.64-.03,2.08-.48.33-.32.36-.39.43-.94.35-3-.41-6.49-2.2-10.13-.35-.71-.87-1.67-1.16-2.13-.29-.46-.52-.87-.52-.91s.1-.39.24-.77c.69-1.94,1-4.35.82-6.24-.21-2.08-.7-3.76-1.73-5.81-.65-1.32-.65-1.33-.63-1.9.02-.76-.13-3.67-.27-5.13-.23-2.23-.92-6.57-1.21-7.63-.04-.14.04-.21.48-.43.61-.31.8-.57.8-1.03,0-.57-.51-1.31-2.19-3.18l-.51-.57.35-.04c.19-.02.71-.08,1.15-.13,1.05-.12,2.77-.44,3.41-.64l.5-.15.64.82c3.27,4.18,5.99,8.86,7.86,13.52,1.74,4.32,3.14,9.77,3,11.58-.03.44-.02.54.14.73.15.19.23.23.51.2.24-.02.36-.08.49-.25.15-.21.17-.33.16-1.21-.02-2.58-1.75-8.58-3.79-13.18-1.73-3.9-4.22-8.05-7.02-11.66l-.84-1.09.36-.23c1.48-.94,2.46-2.74,2.76-5.11.27-2.04.24-4.75-.06-6.14-.28-1.26-.74-2.31-1.36-3.04l-.28-.33,1.13-.27c3.42-.8,6.63-2.29,9.42-4.39,2.45-1.84,4.09-3.61,5.92-6.34,2.19-3.27,3.42-6.67,3.81-10.49.13-1.21.06-3.77-.11-4.77-.64-3.52-1.73-6.17-4.3-10.43-.69-1.15-1.48-2.45-1.74-2.89-2.75-4.59-3.47-7.91-2.59-11.81.1-.48.41-1.52.67-2.32.27-.8.52-1.7.57-1.99.24-1.38-.43-2.25-1.74-2.25-1.46,0-5,1.56-7.79,3.42-1.32.89-2.14,1.55-3.2,2.6-3.48,3.45-4.61,7.11-3.62,11.67.11.51.61,2.16,1.12,3.67.99,2.95,1.28,4.08,1.41,5.52.17,1.68-.15,3.5-.89,4.97-.99,2-2.87,3.84-5.17,5.08-1.12.61-3.14,1.38-4.21,1.62-.18.04-.31-.04-.81-.48-1.41-1.24-3.64-2.83-5.48-3.88-1.78-1.02-4.39-2.23-5.64-2.61-.55-.17-.57-.18-.86-.69-.18-.3-.57-.78-.91-1.1-.94-.9-2.18-1.42-4.29-1.82-1.2-.22-4.09-.2-5.35.04-2.57.48-4.09,1.36-4.97,2.84l-.31.52-.84.29c-3.54,1.24-7.74,3.7-10.72,6.29-.42.36-.76.65-.77.65-.13,0-1.58-.45-2.2-.69-3.58-1.34-6.13-3.48-7.46-6.26-.52-1.09-.75-2.08-.79-3.53-.06-1.97.19-3.19,1.34-6.56,1.14-3.31,1.44-4.55,1.51-6.39.15-3.56-1.21-6.58-4.3-9.52-1.94-1.85-5.09-3.81-7.98-4.97-1.78-.7-2.82-.85-3.58-.5h0Zm2.36,1.5c2.34.82,5.25,2.46,7.19,4.01.96.78,2.25,2.09,2.89,2.94,1.59,2.12,2.3,4.49,2.08,6.92-.13,1.42-.41,2.56-1.31,5.23-1.35,4.05-1.57,5.17-1.49,7.42.05,1.47.25,2.44.73,3.57,1.07,2.54,3.31,4.84,6.11,6.28,1.06.54,2.53,1.15,3.36,1.4l.49.14-.62.7c-3.65,4.06-5.87,8.64-7.23,14.85-.16.73-.31,1.34-.32,1.36-.02.02-.43.05-.9.06-.72.03-1.06,0-1.88-.17-4.57-.93-9.37-3.66-12.41-7.07-3.43-3.85-5.43-8.08-5.96-12.66-.52-4.47.61-8.77,3.7-13.91.33-.56,1.11-1.85,1.73-2.87,1.79-2.96,2.66-4.8,3.17-6.74.39-1.49.45-2.03.45-3.59,0-2.07-.23-3.24-1.07-5.82-.76-2.3-.75-2.43.1-2.35.27.02.82.16,1.21.3h0Zm84.75-.2c.15.19.06.61-.52,2.38-1.23,3.76-1.38,6.28-.57,9.33.52,1.93,1.37,3.74,3.18,6.74,2.67,4.42,3.28,5.53,4.08,7.56,1.02,2.58,1.42,4.59,1.43,7.04,0,4.8-1.62,9.21-5.02,13.57-1.98,2.53-4.86,4.85-7.95,6.37-2.04,1-3.8,1.61-5.85,2.01-.69.14-2.29.13-2.43,0-.04-.04-.17-.51-.28-1.04-.53-2.47-1.36-5.2-2.11-6.96-1.27-2.96-3.04-5.78-5.05-8.02-.4-.45-.72-.83-.7-.84,0-.02.28-.11.59-.21,2.95-.95,5.14-2.26,6.95-4.13,2.18-2.25,3.13-4.57,3.13-7.58,0-1.99-.19-2.86-1.48-6.74-1.14-3.46-1.31-4.2-1.36-5.94-.04-1.58.11-2.51.64-3.85,1.32-3.39,5.16-6.75,10.2-8.95,1.73-.75,2.88-1.02,3.12-.73Zm-40.74,27.74c1.72.34,2.64.7,3.36,1.35,1.36,1.23,1.74,2.87,1.92,8.18.1,3.1.2,15.68.13,16.71l-.06.82-7.89-.02-7.88-.02-.06-1.17c-.07-1.57.07-16.3.18-18.09.27-4.53.9-6.1,2.84-7.03.73-.36,1.86-.66,3.05-.85,1.11-.17,3.25-.11,4.4.12Zm-11.14,3.82c-.43,1.73-.58,5.38-.66,16.04l-.06,7.22-6.06-.07c-7.37-.09-11.55-.1-12.23-.02l-.52.06.06-.35c.11-.71.79-3.33,1.18-4.52,2.22-6.85,6.36-12,12.72-15.83,1.54-.93,5.15-2.7,5.56-2.72.03,0,.05.08.02.19Zm18.24.22c4.05,1.71,7.73,4.14,10.61,7.03,3.85,3.84,6.33,8.71,7.71,15.09l.19.89-.66-.06c-.87-.07-4.78-.07-12.13.02l-6.06.07-.05-7.66c-.06-7.51-.14-10.93-.3-12.95-.08-.96-.27-2.25-.37-2.66-.06-.23-.02-.22,1.06.23Zm-11.79,24.27c9.29,0,19.28-.02,22.22-.06,6.61-.1,7.91-.03,9.36.51,1.29.48,2.02,1.28,2.54,2.81.52,1.52.6,4.35.18,6.87-.31,1.93-1.09,3.21-2.39,3.95-.94.54-2.92,1.01-5.06,1.21-.51.05-1.11.1-1.33.13-1.03.1-24.36.18-34.77.12-12.7-.08-13.34-.1-16.01-.65-2.56-.52-3.8-1.52-4.5-3.61-.56-1.67-.69-5.61-.24-7.43.59-2.4,1.83-3.46,4.48-3.81,1.07-.14,1.39-.15,5.09-.1,1.95.02,11.15.05,20.43.06Zm-4.51,16.95s-.14.68-.31,1.49c-.3,1.39-.34,1.49-.61,1.8-.92,1-2.95,1.75-4.72,1.76h-.79l.33-.31c.37-.36.42-.67.15-.96-.26-.27-.53-.23-1.12.19-.65.47-1.66.96-2.34,1.13-.68.18-1.85.12-2.59-.12-.31-.1-.55-.2-.54-.23,0-.03.17-.17.38-.3.32-.21.38-.28.4-.54.05-.57-.41-.78-1.02-.48-.95.48-2.64.74-3.83.58-.7-.09-1.78-.4-1.93-.55-.17-.17,2.08-2.66,2.88-3.19l.52-.35,7.57.02c4.17.02,7.58.04,7.59.05Zm28.91.21c.75.49,3.09,3.04,2.97,3.23-.08.13-.94.4-1.68.53-1.24.22-2.8.03-3.84-.45-.61-.29-.87-.31-1.12-.06-.36.34-.19.82.37,1.07.19.08.33.17.33.2,0,.02-.28.14-.62.25-.91.28-2.25.27-3.07-.02-.61-.22-1.35-.61-1.99-1.07-.46-.33-.71-.36-.98-.08-.31.3-.27.57.14.94l.33.31h-.78c-1.74,0-3.62-.67-4.6-1.64l-.43-.42-.3-1.37c-.17-.76-.3-1.44-.3-1.51,0-.14.39-.15,6.65-.17,3.65,0,7.04-.02,7.53-.04l.89-.02.5.32Zm-16.74.4c2.41,11.57,3.21,18.73,2.43,21.77-.5,1.91-1.67,2.92-4,3.41-1.22.27-2.16.32-4.4.3-2.16-.02-2.88-.1-4.14-.44-1.41-.39-2.47-1.19-2.98-2.24-1.02-2.12-.87-6.4.5-14.65.48-2.91,1.51-8.17,1.69-8.67.02-.06,1.89-.08,5.4-.08h5.37l.13.61Zm-13.23,4.58c-.14.48-.92,5.09-1.21,7.17-.52,3.71-.73,7.13-.54,8.87.06.48.11.92.14.98.03.1-.15.11-1.04.11-3.19,0-7.24,1.31-10.62,3.42-1.96,1.22-4.03,2.98-5.36,4.59-.32.38-.62.74-.68.81-.22.24-.69-1.8-.83-3.61-.29-3.68,1.26-7.88,4.07-11.04,1.45-1.62,2.6-2.58,3.76-3.13.38-.17.8-.37.94-.44.78-.38.31-1.37-.52-1.08-.65.23-1.66.74-2.25,1.15-.71.48-2.46,2.15-3.15,2.99-.24.31-.46.54-.48.53-.04-.05.13-2.78.25-3.94.18-1.68.66-4.94.91-6.21l.22-1.09h1.53c1.46,0,1.55,0,1.83.18.16.1.57.3.93.45,1.64.69,3.09.77,4.6.24l.6-.2.47.18c.4.16.61.19,1.59.19,1.58,0,2.93-.3,4.22-.95.64-.32.69-.34.64-.15h0Zm17.3.66c1.1.36,1.74.45,2.96.44.96,0,1.2-.02,1.62-.18l.49-.18.59.2c1.2.4,2.51.44,3.73.07.46-.14,1.73-.7,1.91-.86.11-.09,3.16-.15,3.21-.06.15.25.83,4.48,1.08,6.74.18,1.57.37,4.39.31,4.44-.02.02-.23-.2-.48-.5-.65-.81-2.04-2.16-2.82-2.75-.77-.58-2.33-1.39-2.8-1.45-.4-.05-.67.19-.67.57,0,.35.1.42,1.21.96,1.11.54,1.78,1.03,2.87,2.12,3.54,3.52,5.44,8.13,5.06,12.23-.14,1.44-.57,3.46-.74,3.5-.02,0-.32-.32-.65-.73-3.94-4.74-10.67-8.12-16.13-8.12h-1.03l.11-.69c.14-.9.08-4.42-.1-6.03-.31-2.79-1.16-8.37-1.49-9.82-.05-.19-.09-.44-.09-.54,0-.18,0-.18.57.1.31.16.89.4,1.27.52h0Zm-18.83,17.82c.37.1.41.15.66.63.31.62,1.11,1.43,1.81,1.85,1.68,1.03,4.55,1.47,8.24,1.28,2.23-.11,3.71-.43,4.91-1.05,1.1-.58,1.67-1.15,2.45-2.44.49-.81,4.51-.31,7.66.94,5.32,2.14,9.29,5.73,11.86,10.72,1.66,3.21,2.55,6.6,2.39,9.02-.09,1.24-.08,1.22-.78,1.22s-1.95-.24-2.75-.53c-2.2-.79-4.34-2.51-6.48-5.23-.27-.33-.57-.65-.67-.71-.43-.23-.9.02-.9.49,0,.27,1.24,1.85,2.36,3l.68.71-.28.05c-.48.09-2.34-.03-3.26-.21-1.65-.32-3.38-1.05-4.9-2.07-.99-.66-1.65-1.19-2.79-2.25-.96-.89-1.13-.97-1.47-.73-.23.16-.3.48-.15.75.19.36,1.84,1.9,2.88,2.68.53.4.94.73.9.75-.04.02-.5.1-1.03.18-2.29.33-4.68-.1-6.95-1.23-1.51-.76-3.21-2.13-4.22-3.39-.57-.72-.61-.75-.91-.75s-.34.03-.8.63c-.78,1.02-2.28,2.33-3.58,3.12-1.05.64-2.63,1.24-4.03,1.55-.94.2-2.54.23-3.61.08-.5-.07-.96-.15-1.03-.18-.08-.03.08-.19.5-.5,1.51-1.07,3.34-2.82,3.34-3.18,0-.31-.29-.63-.57-.63-.19,0-.41.17-1.15.86-3.3,3.12-6.52,4.55-10.24,4.55-.47,0-.88-.02-.9-.05-.03-.03.25-.37.62-.77.37-.39,1.04-1.16,1.49-1.72.66-.83.82-1.07.82-1.29,0-.4-.39-.68-.76-.53-.1.04-.63.6-1.17,1.24-2.43,2.91-4.68,4.5-7.25,5.11-.72.17-2.16.25-2.24.12-.12-.19-.2-1.84-.12-2.63.52-5.32,3.73-11.17,8.07-14.67,2.43-1.96,5.64-3.6,8.52-4.36,1.89-.49,4.01-.68,4.85-.43Z"/>
        <g>
          <path class="cls-3" d="m33.21,43.63c-.23.16-.36,1.34-.41,3.84-.06,2.27,0,3.07.3,4.56.18.86.81,2.88,1.05,3.37.19.37.44.46.65.24q.16-.16-.28-1.45c-.52-1.5-.82-2.78-.95-4.05-.11-1.08-.06-3.94.1-5.42.1-.95.1-1-.05-1.11-.19-.14-.22-.14-.4,0Z"/>
          <path class="cls-3" d="m35.61,57.67c-.14.14-.12.35.07.73.26.51.55.86.71.86.19,0,.33-.15.33-.36,0-.18-.53-1.19-.68-1.28-.14-.09-.33-.07-.44.03Z"/>
          <path class="cls-3" d="m37.84,61.16c-.12.27,0,.43,1.06,1.53,1.6,1.64,3.34,2.85,5.86,4.09,1.88.92,1.81.89,2.04.8.13-.05.18-.13.18-.31,0-.23-.04-.27-1.55-.99-2.73-1.32-4.18-2.32-5.94-4.08-.76-.75-1.29-1.23-1.4-1.23-.09,0-.19.09-.25.2Z"/>
          <path class="cls-3" d="m129.8,43.63c-.15.1-.15.15-.05.99.15,1.28.21,4.68.1,5.69-.14,1.21-.45,2.54-.87,3.71-.4,1.11-.47,1.58-.24,1.73.31.2.5-.1,1.02-1.59.37-1.09.69-2.43.82-3.57.14-1.12.11-3.94-.05-5.45-.15-1.53-.3-1.82-.73-1.5Z"/>
          <path class="cls-3" d="m127.32,57.71c-.3.36-.65,1.09-.6,1.28.06.22.31.33.5.22.17-.1.68-1.05.68-1.28,0-.34-.36-.48-.58-.22Z"/>
          <path class="cls-3" d="m124.27,61.87c-1.68,1.78-3.26,2.92-5.9,4.21-.91.44-1.72.86-1.79.93-.21.18-.19.49.04.57.21.08.2.09,1.65-.59,2.84-1.32,5.02-2.88,6.75-4.81.58-.65.7-.9.54-1.1-.22-.26-.44-.12-1.29.78Z"/>
          <path class="cls-3" d="m75.17,47.29c-.23.09-.48.38-.53.62-.15.83.83,1.37,1.43.78.64-.64-.05-1.71-.9-1.41Z"/>
          <path class="cls-3" d="m87.4,47.51c-.38.38-.39.82-.02,1.17.56.56,1.45.16,1.45-.64,0-.38-.45-.81-.85-.81-.23,0-.36.06-.57.27Z"/>
          <path class="cls-3" d="m74.67,53.93c-.23.2-.27.29-.27.61s.04.41.27.61c.57.51,1.39.16,1.39-.59,0-.78-.82-1.15-1.39-.64Z"/>
          <path class="cls-3" d="m87.64,53.97c-.56.56-.21,1.42.57,1.42.86,0,1.18-1.13.44-1.56-.37-.23-.7-.18-1.02.14Z"/>
          <path class="cls-3" d="m74.68,60.39c-.29.29-.37.59-.24.9.15.34.45.56.8.56.37,0,.64-.19.79-.54.34-.82-.72-1.55-1.35-.92Z"/>
          <path class="cls-3" d="m87.8,60.24c-.27.1-.44.4-.44.79,0,.75.82,1.1,1.39.59.23-.2.27-.29.27-.61s-.04-.41-.27-.61c-.27-.24-.61-.3-.95-.15Z"/>
          <path class="cls-3" d="m74.77,67.31c-.67.48-.35,1.57.47,1.57.37,0,.64-.19.79-.54.31-.75-.6-1.49-1.26-1.03Z"/>
          <path class="cls-3" d="m87.69,67.31c-.29.21-.44.64-.33.97.2.61.9.8,1.39.36.23-.2.27-.29.27-.61s-.04-.41-.27-.61c-.31-.27-.75-.31-1.06-.1Z"/>
          <path class="cls-3" d="m92.89,50.88c-.19.06-.29.26-.23.44.03.06.42.3.87.52,2.04.99,4.85,3.17,6.44,4.97.37.42.73.78.81.81.37.12.59-.3.36-.66-.3-.45-2.46-2.54-3.43-3.3-1.17-.93-2.54-1.83-3.51-2.33-.87-.44-1.09-.52-1.3-.44Z"/>
          <path class="cls-3" d="m102.8,59.52c-.16.16-.1.44.17.84.68.99,1.31,2.05,1.91,3.21.7,1.35.87,1.53,1.14,1.2.18-.22.14-.37-.36-1.36-.63-1.24-1.91-3.31-2.34-3.8-.19-.19-.38-.23-.52-.08Z"/>
          <path class="cls-3" d="m67.75,72.88c-.67.48-.35,1.57.47,1.57.37,0,.64-.19.79-.54.31-.75-.6-1.49-1.26-1.03Z"/>
          <path class="cls-3" d="m94.69,72.91c-.3.24-.42.65-.27.99.15.36.31.48.69.52.39.06.67-.1.86-.47.4-.77-.61-1.57-1.28-1.04Z"/>
          <path class="cls-3" d="m60.3,72.98c-.32.16-.57.61-.5.92.02.12.13.31.24.42.63.63,1.66,0,1.41-.85-.15-.5-.68-.73-1.15-.49Z"/>
          <path class="cls-3" d="m76.54,73.07c-.29.29-.37.59-.24.9.15.34.45.56.8.56.37,0,.64-.19.79-.54.34-.82-.72-1.55-1.35-.92Z"/>
          <path class="cls-3" d="m85.95,72.93c-.3.16-.44.42-.44.78,0,.75.82,1.1,1.39.59.23-.2.27-.29.27-.61s-.04-.41-.27-.61c-.27-.25-.65-.31-.94-.14Z"/>
          <path class="cls-3" d="m102.58,72.89c-.1.02-.27.14-.4.27-.44.45-.24,1.19.36,1.37.87.26,1.5-.78.84-1.4-.23-.22-.51-.3-.79-.25Z"/>
          <path class="cls-3" d="m52.05,73.38c-.28.3-.35.65-.19.97.14.27.49.5.78.5.53,0,.97-.6.81-1.09-.2-.61-.97-.82-1.4-.38Z"/>
          <path class="cls-3" d="m110.21,73.39c-.33.33-.33.79,0,1.15.63.7,1.74-.03,1.38-.9-.13-.31-.41-.48-.81-.48-.27,0-.39.05-.57.23Z"/>
          <path class="cls-3" d="m52.43,84.1c-.35.15-.52.41-.52.81,0,.66.74,1.04,1.29.67.85-.57.15-1.88-.78-1.48Z"/>
          <path class="cls-3" d="m110.49,84.03c-.1.02-.27.14-.4.27-.64.66.1,1.7.94,1.34.35-.15.6-.59.52-.94-.09-.43-.61-.76-1.06-.68Z"/>
          <path class="cls-3" d="m76.81,85.03c-.31.19-.43.39-.43.75,0,.57.61.98,1.15.76.36-.15.48-.31.52-.69.06-.4-.12-.7-.5-.86-.36-.15-.44-.15-.74.05Z"/>
          <path class="cls-3" d="m85.84,84.99c-.18.07-.31.22-.39.42-.37.88.68,1.62,1.35.94.68-.67-.09-1.75-.96-1.36Z"/>
          <path class="cls-3" d="m67.9,85.08c-.43.15-.66.72-.48,1.15.13.31.41.48.81.48.87,0,1.13-1.2.35-1.61-.19-.1-.47-.1-.67-.03Z"/>
          <path class="cls-3" d="m94.66,85.3c-.56.56-.21,1.42.57,1.42.5,0,.85-.36.85-.89,0-.38-.45-.81-.85-.81-.23,0-.36.06-.57.27Z"/>
          <path class="cls-3" d="m59.97,85.34c-.23.2-.27.29-.27.61s.04.41.27.61c.57.51,1.38.14,1.39-.64,0-.75-.82-1.1-1.39-.59Z"/>
          <path class="cls-3" d="m102.42,85.25c-.44.36-.48.88-.08,1.28.31.31.65.36,1.02.14.73-.43.41-1.56-.44-1.56-.19,0-.4.06-.49.15Z"/>
          <path class="cls-3" d="m85.99,91.88c-.06.11.02.66.32,2.16.48,2.45.88,4.7,1.25,7.21.22,1.48.31,1.92.42,1.99.2.15.33.13.48-.09.11-.19.11-.31-.09-1.64-.55-3.77-1.62-9.43-1.82-9.67-.14-.17-.46-.15-.57.03Z"/>
          <path class="cls-3" d="m88.11,105.8c-.09.12-.08,4.43,0,4.57.03.05.15.1.25.1.37,0,.4-.2.4-2.34,0-1.77-.02-2.01-.15-2.2-.15-.23-.39-.28-.52-.12Z"/>
          <path class="cls-3" d="m78.83,127c-.76.58-2.1,1.41-3.11,1.92-1.12.57-1.28.75-.95,1.03.23.19.28.17,1.45-.43.98-.49,2.33-1.35,3.05-1.92.46-.36.55-.65.27-.82-.23-.12-.28-.1-.71.22Z"/>
          <path class="cls-3" d="m83.86,126.85c-.23.26-.09.45.78,1.08,1.53,1.11,3.56,2.2,3.91,2.11.2-.06.3-.26.22-.47-.03-.07-.41-.31-.84-.53-1.08-.54-1.99-1.09-2.94-1.77-.44-.31-.85-.57-.9-.57-.06,0-.16.07-.23.15Z"/>
          <path class="cls-3" d="m68.54,127.8c-1.03.81-2.12,1.5-3.12,2-.89.44-1.06.6-.94.89.05.13.18.17.47.14.25-.02,1.74-.8,2.55-1.34,1.18-.78,2.13-1.58,2.16-1.81.03-.2-.15-.41-.35-.41-.06,0-.4.24-.78.53Z"/>
          <path class="cls-3" d="m93.87,127.39c-.26.25-.15.42.67,1.07.99.78,2.17,1.54,3.18,2.04.77.37.89.41,1.07.32.16-.07.2-.14.18-.31-.02-.19-.15-.28-1.05-.75-1.11-.59-1.88-1.08-3-1.95-.4-.3-.76-.55-.82-.55-.06,0-.16.06-.23.13Z"/>
          <path class="cls-3" d="m58.35,129.31c-1.38,1.38-2.27,2.1-3.46,2.8-.73.43-.87.6-.72.89.14.26.4.19,1.26-.31,1.11-.67,2.33-1.66,3.54-2.92,1.18-1.22,1.28-1.36,1.06-1.61-.08-.09-.19-.16-.25-.16-.06,0-.7.59-1.42,1.32Z"/>
          <path class="cls-3" d="m103.45,128.09c-.06.06-.1.19-.1.31,0,.19.25.48,1.28,1.51,1.31,1.32,2.3,2.13,3.5,2.84.7.42.95.48,1.12.29.22-.27.06-.47-.79-.99-1.24-.77-2.11-1.47-3.46-2.83-.68-.68-1.28-1.24-1.34-1.24s-.15.04-.21.1Z"/>
          <path class="cls-3" d="m72.53,130.13c-.29.13-.36.43-.15.61.26.22,1.17-.09,1.17-.39,0-.34-.51-.44-1.03-.22Z"/>
          <path class="cls-3" d="m89.96,130.11c-.27.27.03.6.64.67.47.06.61-.04.57-.43-.02-.25-.99-.45-1.2-.24Z"/>
          <path class="cls-3" d="m62.84,130.98c-.33.2-.36.52-.07.65.15.07.25.06.52-.09.31-.15.34-.19.31-.43-.02-.22-.06-.26-.27-.28-.14,0-.36.05-.5.15Z"/>
          <path class="cls-3" d="m99.83,130.94c-.1.25.04.5.36.65.36.16.52.13.65-.12.07-.14.05-.2-.15-.4-.27-.27-.78-.34-.86-.12Z"/>
          <path class="cls-3" d="m52.6,133.35c-.4.41.05.78.6.49.27-.13.34-.4.15-.59-.16-.16-.54-.11-.75.1Z"/>
          <path class="cls-3" d="m110.06,133.28c-.15.17-.04.48.2.59.36.16.6.12.7-.11.09-.19.07-.23-.12-.4-.26-.22-.63-.25-.78-.07Z"/>
          <path class="cls-3" d="m71.62,138c-.14.14-.16.27-.16.92,0,1.37.45,4.08.93,5.58.26.81,1.12,2.55,1.42,2.88.29.31.72.32.95.02.1-.12.17-.28.17-.36s-.25-.63-.56-1.22c-.65-1.25-.89-1.93-1.21-3.49-.3-1.45-.4-2.12-.48-3.25-.05-.7-.1-.94-.21-1.07-.19-.21-.63-.22-.85,0Z"/>
          <path class="cls-3" d="m91.05,137.94c-.19.15-.3.5-.3,1.02,0,1.11-.47,3.71-.94,5.15-.17.55-.48,1.24-.78,1.78-.31.55-.49.98-.5,1.14,0,.58.65.81,1.07.36.33-.36,1.11-1.92,1.41-2.84.24-.75.52-2.01.78-3.42.15-.87.23-2.62.15-2.88-.13-.37-.59-.52-.9-.3Z"/>
          <path class="cls-3" d="m63.22,139.56c-.41.21-.44.44-.16,1.57.23.93.99,3.05,1.39,3.84.34.69,1.2.61,1.2-.09,0-.16-.23-.87-.56-1.66-.3-.76-.67-1.83-.81-2.39-.15-.56-.32-1.07-.4-1.14-.2-.2-.44-.24-.66-.13Z"/>
          <path class="cls-3" d="m99.7,139.59c-.16.08-.25.23-.34.54-.06.23-.21.76-.32,1.17-.12.42-.44,1.34-.73,2.05-.29.71-.52,1.41-.52,1.55,0,.36.23.55.61.52.24-.02.35-.08.49-.29.31-.47,1.23-2.9,1.49-3.97.29-1.19.26-1.45-.19-1.61-.14-.05-.25-.09-.26-.09,0,0-.1.06-.23.13Z"/>
        </g>
      </g>
    </g>
  </g>
</svg>